<svg width="32" height="32" viewBox="0 0 32 32" fill="none" xmlns="http://www.w3.org/2000/svg">
<path d="M1.74992 2.03135C9.4158 1.62177 14.3936 5.32475 15.9999 7.36917V28.5456C9.87718 25.6643 5.22455 25.3557 2.25302 25.5102C1.05165 25.5727 0 24.6595 0 23.4565V3.94879C0 2.94422 0.746779 2.08494 1.74992 2.03135Z" fill="#CAF7E8"/>
<path d="M30.2501 2.03135C22.5842 1.62177 17.6064 5.32475 16.0001 7.36917V28.5456C22.1228 25.6643 26.7754 25.3557 29.747 25.5102C30.9484 25.5727 32 24.6595 32 23.4565V3.94879C32 2.94422 31.2532 2.08494 30.2501 2.03135Z" fill="#A2F1D7"/>
<path d="M11.2638 26.5674L13.5535 29.2931H26.3535V26.9827C26.3535 26.0048 26.1103 24.9937 25.3551 24.3726C23.4103 22.773 20.5707 22.878 19.2005 23.1979V15.8344C19.2005 14.9507 18.4842 14.2344 17.6006 14.2344C16.7169 14.2344 16.0006 14.9507 16.0006 15.8344V26.6265L13.6288 24.3528C12.969 23.7203 11.9173 23.7574 11.3037 24.4347C10.7593 25.0357 10.7423 25.9464 11.2638 26.5674Z" fill="#62DBB2"/>
</svg>
